<svg width="107" height="131" viewBox="0 0 107 131" fill="none" xmlns="http://www.w3.org/2000/svg">
    <path
        d="M35.9961 15.7855C34.3306 16.8344 32.1748 17.8438 29.4524 18.753C23.4041 20.7743 17.0343 19.765 10.9808 21.3778C9.44958 21.7863 7.17258 22.8774 5.79163 24.3032C5.79163 24.3032 10.0136 16.2836 22.3183 11.4924C23.4278 11.0602 24.6032 10.6543 25.8498 10.2827C33.4055 8.02683 31.2761 4.85115 27.9687 5.78409C27.9687 5.78409 30.7069 3.85233 34.5915 3.99991C40.4447 4.22392 44.3504 10.5252 35.9961 15.7855Z"
        fill="#F68712" />
    <path
        d="M66.0531 15.8356C64.8381 20.9694 61.109 25.4786 56.8976 29.0996C52.2382 33.1134 46.9858 36.036 43.9077 37.5092C23.8232 47.1364 3.66749 43.5285 1.27453 53.3428C1.27453 53.3428 -3.50612 44.5168 7.77083 38.263C13.9772 34.8211 17.4586 33.0422 31.9534 27.774C36.3308 26.1822 41.6755 24.2399 46.4034 21.1301C49.6265 19.0112 52.565 16.3495 54.7208 12.8865C58.4473 6.89097 53.743 0.940197 45.2254 0.436833C58.1969 -0.290542 68.2563 6.54309 66.0531 15.8356Z"
        fill="#F68712" />
    <path
        d="M73.4137 51.4664C69.234 54.7001 64.0686 57.7519 57.8595 60.5033C34.0064 71.0713 14.1907 68.7574 9.57341 78.8642C9.57341 78.8642 3.25896 65.6107 25.2752 58.4265C44.635 52.1121 57.9623 46.0348 66.7198 40.2448C85.8239 27.6238 83.1991 16.3679 74.0173 6.99375C74.5654 7.32581 75.0899 7.64997 75.5642 7.95304C91.1185 18.8821 92.1384 36.9901 73.4137 51.4664Z"
        fill="#3871C1" />
    <path
        d="M92.5495 60.9539C89.8272 65.7187 85.8371 69.6982 81.0618 73.0689C75.3324 77.109 68.4645 80.2715 61.283 82.8463C51.8534 86.2328 28.6908 89.0475 27.9423 94.458C27.9423 94.458 24.988 88.9552 35.4664 83.5921C47.4945 77.4384 60.1576 72.6341 72.0987 66.2906C73.2636 65.6713 75.501 64.5434 78.1285 62.8672C86.2904 57.6755 98.2262 47.2577 93.5721 30.7257C93.7434 30.984 102.251 43.9818 92.5495 60.9539Z"
        fill="#40B93C" />
    <mask id="mask0_6_457" style="mask-type:luminance" maskUnits="userSpaceOnUse" x="49" y="65"
        width="45" height="32">
        <path d="M49.1626 65.8373H93.6906V96.8272H49.1626V65.8373Z" fill="white" />
    </mask>
    <g mask="url(#mask0_6_457)">
        <path
            d="M93.4166 65.9612C93.4166 65.9612 92.9369 73.0847 82.9013 82.2797C82.8749 82.3061 82.8459 82.3324 82.8196 82.3561C77.4459 87.2606 70.9707 90.8053 65.4469 93.1324C56.945 96.7112 49.4499 96.7719 49.3708 96.7956C58.745 93.8571 72.4387 86.0984 82.1871 78.295C87.6582 73.9149 91.888 69.5243 93.4166 65.9612Z"
            fill="#40B93C" />
    </g>
    <path
        d="M35.9962 15.7855C31.2392 13.801 26.5956 12.4332 22.3184 11.4924C23.4279 11.0602 24.6033 10.6543 25.8498 10.2827C33.4056 8.02683 31.2761 4.85115 27.9687 5.78409C27.9687 5.78409 30.7069 3.85233 34.5915 3.99991C40.4448 4.22392 44.3504 10.5252 35.9962 15.7855Z"
        fill="#FBC108" />
    <path
        d="M66.053 15.8356C64.8381 20.9694 61.109 25.4786 56.8976 29.0996C53.5032 25.9767 49.9717 23.3465 46.4034 21.1301C49.6265 19.0112 52.565 16.3495 54.7207 12.8865C58.4472 6.89097 53.743 0.940197 45.2253 0.436833C58.1969 -0.290542 68.2562 6.54309 66.053 15.8356Z"
        fill="#FBC108" />
    <path
        d="M73.4138 51.4664C71.374 47.3367 69.126 43.6076 66.7198 40.2448C85.824 27.6238 83.1991 16.3679 74.0173 6.99375C74.5655 7.32581 75.0899 7.64997 75.5643 7.95304C91.1185 18.8821 92.1384 36.9901 73.4138 51.4664Z"
        fill="#00ADEF" />
    <path
        d="M93.4165 65.9612C93.4165 65.9612 92.9369 73.0847 82.9012 82.2797C82.6798 80.9277 82.4426 79.5969 82.187 78.295C87.6581 73.9149 91.888 69.5243 93.4165 65.9612Z"
        fill="#80CC28" />
    <path
        d="M81.0618 73.0689C80.2026 69.4689 79.2196 66.0745 78.1285 62.8672C86.2904 57.6755 98.2262 47.2577 93.5721 30.7257C93.7434 30.984 102.251 43.9818 92.5495 60.9539C89.8272 65.7188 85.8371 69.6982 81.0618 73.0689Z"
        fill="#80CC28" />
    <path
        d="M14.4672 116.356H7.6257L6.14987 119.634H4.80054L10.4192 107.353H11.6948L17.3135 119.634H15.9431L14.4672 116.356ZM13.9929 115.301L11.0517 108.702L8.10008 115.301H13.9929Z"
        fill="black" />
    <path d="M18.433 107.353H19.7296V118.517H26.6028V119.634H18.433V107.353Z" fill="black" />
    <path
        d="M32.4458 107.353C34.0112 107.353 35.2393 107.73 36.1248 108.481C37.0156 109.227 37.4636 110.257 37.4636 111.57C37.4636 112.877 37.0156 113.905 36.1248 114.648C35.2393 115.386 34.0112 115.755 32.4458 115.755H29.1462V119.634H27.8496V107.353H32.4458ZM32.4036 114.616C33.6185 114.616 34.5462 114.353 35.1866 113.826C35.8323 113.293 36.1564 112.54 36.1564 111.57C36.1564 110.573 35.8323 109.809 35.1866 109.282C34.5462 108.75 33.6185 108.481 32.4036 108.481H29.1462V114.616H32.4036Z"
        fill="black" />
    <path
        d="M49.7854 107.353V119.634H48.5098V113.973H40.8249V119.634H39.5283V107.353H40.8249V112.824H48.5098V107.353H49.7854Z"
        fill="black" />
    <path
        d="M60.5684 116.356H53.7269L52.2511 119.634H50.9017L56.5204 107.353H57.796L63.4147 119.634H62.0443L60.5684 116.356ZM60.0941 115.301L57.1529 108.702L54.2013 115.301H60.0941Z"
        fill="black" />
    <path
        d="M30.3594 126.616H32.0671C32.4809 126.616 32.8498 126.698 33.174 126.859C33.4955 127.022 33.7459 127.249 33.9225 127.544C34.1043 127.839 34.1965 128.182 34.1965 128.567C34.1965 128.954 34.1043 129.294 33.9225 129.589C33.7459 129.884 33.4955 130.114 33.174 130.274C32.8498 130.438 32.4809 130.517 32.0671 130.517H30.3594V126.616ZM32.025 129.905C32.3122 129.905 32.5652 129.853 32.784 129.747C33.0001 129.637 33.1661 129.479 33.2794 129.273C33.398 129.07 33.4586 128.835 33.4586 128.567C33.4586 128.3 33.398 128.066 33.2794 127.86C33.1661 127.657 33.0001 127.502 32.784 127.397C32.5652 127.286 32.3122 127.228 32.025 127.228H31.0762V129.905H32.025Z"
        fill="#323232" />
    <path
        d="M41.2617 129.905V130.517H38.3417V126.616H41.1879V127.217H39.0585V128.24H40.9455V128.83H39.0585V129.905H41.2617Z"
        fill="#323232" />
    <path
        d="M46.6662 130.57C46.3631 130.57 46.0706 130.527 45.7912 130.443C45.5092 130.359 45.2878 130.248 45.1271 130.106L45.3695 129.536C45.5303 129.663 45.728 129.768 45.9599 129.853C46.1918 129.932 46.4263 129.969 46.6662 129.969C46.9534 129.969 47.1669 129.924 47.3092 129.832C47.4568 129.742 47.5306 129.618 47.5306 129.463C47.5306 129.352 47.4884 129.26 47.4041 129.189C47.325 129.12 47.2249 129.062 47.0984 129.02C46.9771 128.978 46.8137 128.93 46.6029 128.872C46.2998 128.804 46.0574 128.733 45.8755 128.662C45.6911 128.593 45.5329 128.482 45.4012 128.335C45.2668 128.182 45.2009 127.976 45.2009 127.723C45.2009 127.507 45.2588 127.31 45.3801 127.133C45.4987 126.959 45.6752 126.817 45.9072 126.711C46.1443 126.606 46.4369 126.553 46.7821 126.553C47.014 126.553 47.246 126.585 47.4779 126.648C47.7098 126.706 47.9101 126.79 48.0787 126.901L47.8468 127.47C47.6782 127.365 47.499 127.288 47.3092 127.238C47.1247 127.191 46.9455 127.165 46.7716 127.165C46.4817 127.165 46.2682 127.215 46.1285 127.312C45.9941 127.404 45.9282 127.531 45.9282 127.692C45.9282 127.805 45.9651 127.897 46.0442 127.966C46.1206 128.037 46.2181 128.092 46.3394 128.134C46.4659 128.171 46.6372 128.216 46.8559 128.271C47.1432 128.335 47.3777 128.406 47.5622 128.482C47.752 128.553 47.9101 128.662 48.0366 128.809C48.1683 128.957 48.2369 129.157 48.2369 129.41C48.2369 129.629 48.1763 129.826 48.0577 130C47.9443 130.177 47.7678 130.317 47.5306 130.422C47.2908 130.52 47.0035 130.57 46.6662 130.57Z"
        fill="#323232" />
    <path d="M52.3373 126.616H53.0541V130.517H52.3373V126.616Z" fill="#323232" />
    <path
        d="M60.1585 128.524H60.8437V130.074C60.6381 130.238 60.4035 130.359 60.1374 130.443C59.8686 130.527 59.5945 130.57 59.3151 130.57C58.9145 130.57 58.5508 130.485 58.2293 130.317C57.9131 130.143 57.6627 129.903 57.4809 129.6C57.2964 129.291 57.2068 128.946 57.2068 128.567C57.2068 128.182 57.2964 127.837 57.4809 127.534C57.6627 127.233 57.9157 126.993 58.2399 126.817C58.5614 126.643 58.9251 126.553 59.3257 126.553C59.6472 126.553 59.9423 126.611 60.2112 126.722C60.4773 126.827 60.7013 126.985 60.8858 127.196L60.4325 127.639C60.1374 127.344 59.779 127.196 59.3573 127.196C59.0832 127.196 58.8355 127.257 58.6194 127.375C58.4085 127.489 58.2425 127.65 58.1239 127.86C58.0027 128.066 57.9447 128.3 57.9447 128.567C57.9447 128.828 58.0027 129.062 58.1239 129.273C58.2425 129.479 58.4085 129.639 58.6194 129.758C58.8355 129.879 59.0779 129.937 59.3467 129.937C59.6551 129.937 59.9265 129.871 60.1585 129.737V128.524Z"
        fill="#323232" />
    <path
        d="M68.6407 126.616V130.517H68.0398L65.8893 127.871V130.517H65.1725V126.616H65.7628L67.9239 129.252V126.616H68.6407Z"
        fill="#323232" />
    <path
        d="M83.4672 107.353L79.4508 119.634H76.3937L73.6951 111.317L70.9015 119.634H67.8655L63.8386 107.353H66.7797L69.5522 115.987L72.4512 107.353H75.076L77.8801 116.06L80.7475 107.353H83.4672Z"
        fill="white" />
    <path
        d="M93.8943 117.357V119.634H84.3857V107.353H93.6624V109.641H87.2109V112.297H92.914V114.511H87.2109V117.357H93.8943Z"
        fill="white" />
    <path
        d="M104.253 113.246C104.954 113.472 105.503 113.844 105.898 114.363C106.298 114.885 106.499 115.523 106.499 116.282C106.499 117.357 106.08 118.187 105.244 118.77C104.406 119.347 103.189 119.634 101.586 119.634H95.2402V107.353H101.238C102.735 107.353 103.884 107.643 104.686 108.217C105.487 108.787 105.887 109.564 105.887 110.547C105.887 111.145 105.742 111.68 105.455 112.149C105.173 112.613 104.773 112.98 104.253 113.246ZM98.0654 109.493V112.392H100.891C101.592 112.392 102.124 112.271 102.482 112.023C102.846 111.778 103.031 111.417 103.031 110.937C103.031 110.452 102.846 110.091 102.482 109.851C102.124 109.614 101.592 109.493 100.891 109.493H98.0654ZM101.386 117.494C102.129 117.494 102.693 117.373 103.073 117.125C103.452 116.88 103.642 116.501 103.642 115.987C103.642 114.969 102.888 114.458 101.386 114.458H98.0654V117.494H101.386Z"
        fill="white" />
</svg>